<svg fill="none" height="100%" width="100%" viewBox="0 0 500 500" xmlns:xlink="http://www.w3.org/1999/xlink" xmlns="http://www.w3.org/2000/svg"><g id="i0"><g transform="translate(275,272.343)"><animateTransform repeatCount="indefinite" type="translate" attributeName="transform" dur="4s" begin="0s" calcMode="spline" values="275 272.343; 275 268; 275 272; 275 268; 275 272; 275 268; 275 272; 275 268; 275 272; 275 272" keyTimes="0; 0.125; 0.258333; 0.379166; 0.508333; 0.633333; 0.745833; 0.879166; 0.995833; 1" keySplines="0.333 0 0.667 1; 0.333 0 0.667 1; 0.333 0 0.667 1; 0.333 0 0.667 1; 0.333 0 0.667 1; 0.333 0 0.667 1; 0.333 0 0.667 1; 0.333 0 0.667 1; 0 0 1 1" fill="freeze" /><g transform="scale(1,1) translate(-66.174,-88.927)"><g id="i1" transform="matrix(1,0,0,1,110.585,30.656)"><path fill="#d86a48" d="M-1.667,6.785C-1.667,6.785,-9.49,4.103,-9.49,4.103C-9.49,4.103,-8.06,-4.141,-8.06,-4.141C-8.06,-4.141,-8.393,-6.785,-8.393,-6.785C-8.393,-6.785,9.49,-0.56,9.49,-0.56C9.49,-0.56,2.704,6.237,2.704,6.237C2.704,6.237,-1.667,6.785,-1.667,6.785Z" /></g><g id="i2" transform="matrix(1,0,0,1,81.946,18.345)"><path fill="#aa1000" d="M-22.794,-18.095C-24.887,-13.275,-24.489,-4.616,-26.742,0.13C-22.85,1.09,-19.028,2.38,-15.557,4.305C-13.448,5.475,-11.501,6.86,-9.74,8.419C-9.74,8.419,21.477,18.095,21.477,18.095C21.477,18.095,26.742,2.19,26.742,2.19C26.742,2.19,-20.616,-17.577,-22.794,-18.095Z" /></g><g id="i3" transform="matrix(1,0,0,1,90.035,13.001)"><path stroke-miterlimit="10" stroke-width="1" stroke="#aa1000" d="M18.653,7.533C6.218,2.511,-6.217,-2.511,-18.653,-7.533" /></g><g id="i4" transform="matrix(1,0,0,1,119.064,37.995)"><path fill="#d86a48" d="M-13.035,-1.119C-13.035,-1.119,-12.314,-11.765,-1.651,-8.713C9.013,-5.661,13.034,-2.286,11.178,2.804C9.393,7.702,2.308,11.766,-2.208,9.274C-2.208,9.274,1.922,7.452,-0.036,5.48C-3.247,2.244,-4.823,4.351,-4.823,4.351C-4.823,4.351,-10.715,5.146,-13.035,-1.119Z" /></g><g id="i5" transform="matrix(1,0,0,1,74.399,154.837)"><path fill="#fff3da" d="M-5.591,-9.902C-5.591,-9.902,-8.068,3.228,-8.068,3.228C-8.068,3.228,3.638,9.901,4.089,8.314C4.539,6.727,8.068,-9.902,8.068,-9.902C8.068,-9.902,-5.591,-9.902,-5.591,-9.902Z" /></g><g id="i6" transform="matrix(1,0,0,1,58.166,96.354)"><path fill="#3d6e7f" d="M-52.887,-55.961C-52.887,-55.961,-57.916,-24.318,-27.081,-22.109C3.917,-19.887,26.416,-5.54,26.416,-5.54C26.416,-5.54,12.854,24.934,8.415,52.461C8.415,52.461,24.734,55.961,24.734,55.961C24.734,55.961,38.032,31.48,49.916,-2.155C49.916,-2.155,57.915,-20.918,41.335,-28.04C15.587,-39.101,-8.585,-53.651,-8.585,-53.651C-8.585,-53.651,-52.887,-55.961,-52.887,-55.961Z" /></g><g id="i7" transform="matrix(1,0,0,1,85.405,164.597)"><path fill="#000000" d="M-21.126,-12.93C-21.126,-12.93,-2.937,-9.519,-2.937,-9.519C-2.937,-9.519,-4.998,-4.611,-4.998,-4.611C-4.998,-4.611,9.624,-2.815,9.624,-2.815C9.624,-2.815,23.065,1.409,22.042,12.931C22.042,12.931,-23.064,8.924,-23.064,8.924C-23.064,8.924,-22.102,-1.925,-22.102,-1.925C-22.102,-1.925,-21.126,-12.93,-21.126,-12.93Z" /></g><g id="i8" transform="matrix(1,0,0,1,85.004,174.279)"><path fill="#ffffff" d="M-22.664,-0.758C-22.664,-0.758,22.442,3.249,22.442,3.249C22.442,3.249,22.664,0.758,22.664,0.758C22.664,0.758,-22.443,-3.249,-22.443,-3.249C-22.443,-3.249,-22.664,-0.758,-22.664,-0.758Z" /></g><g id="i9" transform="matrix(1,0,0,1,90.554,163.704)"><path fill="#ffffff" d="M-1.497,2.684C-1.497,2.684,1,2.906,1,2.906C1,2.906,1.497,-2.684,1.497,-2.684C1.497,-2.684,-1,-2.906,-1,-2.906C-1,-2.906,-1.497,2.684,-1.497,2.684Z" /></g><g id="i10" transform="matrix(1,0,0,1,85.979,163.298)"><path fill="#ffffff" d="M-1.496,2.684C-1.496,2.684,1,2.906,1,2.906C1,2.906,1.496,-2.684,1.496,-2.684C1.496,-2.684,-1.001,-2.906,-1.001,-2.906C-1.001,-2.906,-1.496,2.684,-1.496,2.684Z" /></g><g id="i11" transform="matrix(1,0,0,1,81.406,162.892)"><path fill="#ffffff" d="M-1.497,2.684C-1.497,2.684,1,2.906,1,2.906C1,2.906,1.497,-2.684,1.497,-2.684C1.497,-2.684,-1,-2.906,-1,-2.906C-1,-2.906,-1.497,2.684,-1.497,2.684Z" /></g><g id="i12" transform="matrix(1,0,0,1,101.825,169.642)"><path fill="#ffffff" d="M-6.091,-7.962C-3.481,-7.009,7.396,-2.4,6.476,7.962C6.476,7.962,-7.396,6.73,-7.396,6.73C-7.396,6.73,-6.091,-7.962,-6.091,-7.962Z" /></g><g id="i13" transform="matrix(1,0,0,1,77.017,144.936)"><path fill="#8fadb5" d="M-12.192,3.668C-12.192,3.668,8.588,8.629,8.588,8.629C8.588,8.629,12.192,-1.391,12.192,-1.391C12.192,-1.391,-9.874,-8.629,-9.874,-8.629C-9.874,-8.629,-12.192,3.668,-12.192,3.668Z" /></g><g id="i14" transform="matrix(1,0,0,1,57.493,108.998)"><path fill="#000000" d="M38.241,52.682C38.241,52.682,38.21,53.026,38.21,53.026C37.788,52.864,37.536,52.784,37.536,52.784C37.536,52.784,34.523,52.413,34.523,52.413C34.523,52.413,34.558,52.022,34.558,52.022C34.558,52.022,32.061,51.8,32.061,51.8C32.061,51.8,32.034,52.108,32.034,52.108C32.034,52.108,29.962,51.854,29.962,51.854C29.962,51.854,29.983,51.616,29.983,51.616C29.983,51.616,27.486,51.394,27.486,51.394C27.486,51.394,27.472,51.548,27.472,51.548C27.472,51.548,25.403,51.293,25.403,51.293C25.403,51.293,25.411,51.209,25.411,51.209C25.411,51.209,22.914,50.988,22.914,50.988C22.914,50.988,24.975,46.079,24.975,46.079C24.975,46.079,22.887,45.688,22.887,45.688C23.05,44.935,23.213,44.178,23.373,43.435C23.373,43.435,28.113,44.567,28.113,44.567C28.113,44.567,31.717,34.547,31.717,34.547C31.717,34.547,30.129,34.027,30.129,34.027C35.059,23.935,43.103,6.388,50.589,-14.798C50.589,-14.798,58.589,-33.561,42.009,-40.683C16.261,-51.745,-7.911,-66.296,-7.911,-66.296C-7.911,-66.296,-52.214,-68.605,-52.214,-68.605C-52.214,-68.605,-57.243,-36.963,-26.408,-34.754C4.591,-32.532,27.089,-18.183,27.089,-18.183C27.089,-18.183,17.136,4.191,11.493,27.913C11.493,27.913,9.651,27.309,9.651,27.309C9.651,27.309,7.333,39.606,7.333,39.606C7.333,39.606,10.481,40.358,10.481,40.358C10.481,40.358,9.934,43.259,9.934,43.259C9.934,43.259,6.786,42.668,6.786,42.668C6.786,42.668,5.81,53.673,5.81,53.673C5.81,53.673,4.847,64.523,4.847,64.523C4.847,64.523,36.936,67.373,36.936,67.373C36.936,67.373,50.808,68.605,50.808,68.605C51.728,58.243,40.851,53.635,38.241,52.682Z" /></g></g></g></g><g id="i15"><g transform="translate(279.936,316.619)"><animateTransform repeatCount="indefinite" type="translate" attributeName="transform" dur="4s" begin="0s" calcMode="spline" values="279.936 316.619; 279.936 310; 279.936 316.619; 279.936 310; 279.936 316.619; 279.936 310; 279.936 316; 279.936 310; 279.936 316.619; 279.936 310" keyTimes="0; 0.120833; 0.254167; 0.370834; 0.504167; 0.616667; 0.7375; 0.879167; 0.983333; 1" keySplines="0.333 0 0.667 1; 0.333 0 0.667 1; 0.333 0 0.667 1; 0.333 0 0.667 1; 0.333 0 0.667 1; 0.333 0 0.667 1; 0.333 0 0.667 1; 0.333 0 0.667 1; 0.333 0 0.667 1" fill="freeze" /><g transform="scale(1,1) translate(-186.501,-105.89)"><g id="i16" transform="matrix(1,0,0,1,87.39,171.781)"><path fill="#aaaaaa" d="M-31.34,0C-31.34,17.309,-17.308,31.34,0,31.34C17.309,31.34,31.34,17.309,31.34,0C31.34,-17.309,17.309,-31.34,0,-31.34C-17.308,-31.34,-31.34,-17.309,-31.34,0Z" /></g><g id="i17" transform="matrix(1,0,0,1,87.39,171.782)"><path fill="#272727" fill-rule="evenodd" d="M0,39.748C-21.917,39.748,-39.748,21.918,-39.748,0C-39.748,-21.918,-21.917,-39.748,0,-39.748C21.917,-39.748,39.748,-21.918,39.748,0C39.748,21.918,21.917,39.748,0,39.748ZM0,-22.932C-12.645,-22.932,-22.932,-12.646,-22.932,0C-22.932,12.645,-12.645,22.931,0,22.931C12.645,22.931,22.932,12.645,22.932,0C22.932,-12.646,12.645,-22.932,0,-22.932Z" /></g><g id="i18" transform="matrix(1,0,0,1,164.362,63.175)"><path fill="#272727" d="M43.084,-0.001C43.084,7.175,38.816,12.992,33.552,12.992C33.552,12.992,-33.552,12.992,-33.552,12.992C-38.816,12.992,-43.084,7.175,-43.084,-0.001C-43.084,-7.176,-38.816,-12.992,-33.552,-12.992C-33.552,-12.992,33.552,-12.992,33.552,-12.992C38.816,-12.992,43.084,-7.176,43.084,-0.001Z" /></g><g id="i19" transform="matrix(1,0,0,1,164.558,64.28)"><path fill="#000000" d="M38.674,-11.887C38.756,-11.237,38.811,-10.574,38.811,-9.893C38.811,-2.931,34.341,2.715,28.828,2.715C28.828,2.715,-41.451,2.715,-41.451,2.715C-41.94,2.715,-42.417,2.654,-42.888,2.568C-41.724,7.953,-38.076,11.887,-33.748,11.887C-33.748,11.887,33.356,11.887,33.356,11.887C38.62,11.887,42.888,6.071,42.888,-1.105C42.888,-5.595,41.215,-9.554,38.674,-11.887Z" /></g><g id="i20" transform="matrix(1,0,0,1,342.26,127.712)"><path fill="#898989" d="M-20.326,-13.818C-20.326,-13.818,13.147,-10.967,17.945,-5.4C17.945,-5.4,20.326,13.818,20.326,13.818C20.326,13.818,-20.326,-13.818,-20.326,-13.818Z" /></g><g id="i21" transform="matrix(1,0,0,1,87.39,171.781)"><path fill="#9b9b9b" d="M-8.918,0C-8.918,4.926,-4.925,8.918,0,8.918C4.925,8.918,8.918,4.926,8.918,0C8.918,-4.925,4.925,-8.918,0,-8.918C-4.925,-8.918,-8.918,-4.925,-8.918,0Z" /></g><g id="i22" transform="matrix(1,0,0,1,87.39,171.781)"><path fill="#c6c6c6" fill-rule="evenodd" d="M0.001,12.739C-7.024,12.739,-12.74,7.024,-12.74,0C-12.74,-7.025,-7.024,-12.74,0.001,-12.74C7.025,-12.74,12.74,-7.025,12.74,0C12.74,7.024,7.025,12.739,0.001,12.739ZM0.001,-5.096C-2.809,-5.096,-5.096,-2.81,-5.096,0C-5.096,2.809,-2.809,5.095,0.001,5.095C2.811,5.095,5.096,2.809,5.096,0C5.096,-2.81,2.811,-5.096,0.001,-5.096Z" /></g><g id="i23" transform="matrix(1,0,0,1,87.39,151.907)"><path fill="#000000" d="M39.748,19.874C39.748,19.874,39.748,19.874,39.748,19.874C39.748,-2.044,21.917,-19.875,0,-19.875C-21.917,-19.875,-39.748,-2.044,-39.748,19.874C-39.748,19.874,39.748,19.874,39.748,19.874Z" /></g><g id="i24" transform="matrix(1,0,0,1,320.984,171.781)"><path fill="#aaaaaa" d="M-31.34,0C-31.34,17.309,-17.309,31.34,0,31.34C17.308,31.34,31.34,17.309,31.34,0C31.34,-17.309,17.308,-31.34,0,-31.34C-17.309,-31.34,-31.34,-17.309,-31.34,0Z" /></g><g id="i25" transform="matrix(1,0,0,1,320.984,171.782)"><path fill="#272727" fill-rule="evenodd" d="M0,39.748C-21.918,39.748,-39.749,21.918,-39.749,0C-39.749,-21.918,-21.918,-39.748,0,-39.748C21.918,-39.748,39.749,-21.918,39.749,0C39.749,21.918,21.918,39.748,0,39.748ZM0,-22.932C-12.645,-22.932,-22.932,-12.646,-22.932,0C-22.932,12.645,-12.645,22.931,0,22.931C12.646,22.931,22.931,12.645,22.931,0C22.931,-12.646,12.646,-22.932,0,-22.932Z" /></g><g id="i26" transform="matrix(1,0,0,1,320.984,171.781)"><path fill="#9b9b9b" d="M-8.918,0C-8.918,4.926,-4.925,8.918,0,8.918C4.925,8.918,8.918,4.926,8.918,0C8.918,-4.925,4.925,-8.918,0,-8.918C-4.925,-8.918,-8.918,-4.925,-8.918,0Z" /></g><g id="i27" transform="matrix(1,0,0,1,320.984,171.781)"><path fill="#c6c6c6" fill-rule="evenodd" d="M-0.001,12.739C-7.025,12.739,-12.74,7.024,-12.74,0C-12.74,-7.025,-7.025,-12.74,-0.001,-12.74C7.025,-12.74,12.74,-7.025,12.74,0C12.74,7.024,7.025,12.739,-0.001,12.739ZM-0.001,-5.096C-2.811,-5.096,-5.096,-2.81,-5.096,0C-5.096,2.809,-2.811,5.095,-0.001,5.095C2.81,5.095,5.097,2.809,5.097,0C5.097,-2.81,2.81,-5.096,-0.001,-5.096Z" /></g><g id="i28" transform="matrix(1,0,0,1,320.984,151.907)"><path fill="#000000" d="M39.748,19.874C39.748,19.874,39.748,19.874,39.748,19.874C39.748,-2.044,21.917,-19.875,0,-19.875C-21.917,-19.875,-39.748,-2.044,-39.748,19.874C-39.748,19.874,39.748,19.874,39.748,19.874Z" /></g><g id="i29" transform="matrix(1,0,0,1,279.76,17.282)"><path fill="#ffe269" d="M-14.349,-0.001C-14.349,7.924,-7.925,14.35,0,14.35C7.925,14.35,14.349,7.924,14.349,-0.001C14.349,-7.926,7.925,-14.35,0,-14.35C-7.925,-14.35,-14.349,-7.926,-14.349,-0.001Z" /></g><g id="i30" transform="matrix(1,0,0,1,277.772,19.658)"><path fill="#eaca44" d="M11.719,7.541C1.292,7.541,-6.717,-2.001,-8.573,-11.805C-8.6,-11.861,-8.632,-11.916,-8.658,-11.973C-10.953,-9.429,-12.361,-6.072,-12.361,-2.377C-12.361,5.548,-5.937,11.973,1.988,11.973C6.072,11.973,9.748,10.259,12.361,7.52C12.146,7.524,11.934,7.541,11.719,7.541Z" /></g><g id="i31" transform="matrix(1,0,0,1,170.195,82.281)"><path fill="#fff3da" d="M140.603,26.863C140.603,26.863,141.616,21.148,138.049,10.447C134.482,-0.254,117.156,-4.586,117.156,-4.586C117.156,-4.586,95.88,-51.214,95.88,-51.214C95.88,-51.214,107.983,-50.45,107.983,-50.45C107.983,-50.45,107.983,-80.261,107.983,-80.261C107.983,-80.261,94.224,-80.261,94.224,-80.261C94.224,-80.261,73.22,-71.804,75.528,-65.786C77.835,-59.769,103.397,6.88,103.397,6.88C103.397,69.559,64.413,63.444,64.413,63.444C64.413,63.444,29.606,63.444,29.606,63.444C15.082,63.444,-9.376,63.444,-9.376,35.162C-9.376,6.88,21.198,-3.822,21.198,-3.822C21.198,-3.822,-68.999,-3.822,-68.999,-3.822C-114.098,-3.057,-135.51,56.632,-135.51,56.632C-139.841,65.934,-141.617,80.261,-141.617,80.261C-141.617,80.261,19.669,80.261,19.669,80.261C48.971,80.261,80.483,79.688,92.223,74.705C97.328,50.619,116.419,31.703,140.603,26.863Z" /></g><g id="i32" transform="matrix(1,0,0,1,269.901,24.79)"><path fill="#d3b994" d="M-5.817,-4.296C-8.277,-3.949,-5.533,1.365,-3.779,6.282C-3.779,6.282,8.277,7.042,8.277,7.042C8.277,7.042,8.277,-7.042,8.277,-7.042" /></g><g id="i33" transform="matrix(1,0,0,1,151.849,120.557)"><path fill="#d3b994" d="M-24.919,37.399C-24.919,37.399,52.483,42.097,83.014,34.341C113.545,26.586,123.271,-7.445,121.743,-31.396C121.743,31.284,82.759,25.169,82.759,25.169C82.759,25.169,47.952,25.169,47.952,25.169C33.429,25.169,8.969,25.169,8.969,-3.114C8.969,-31.396,39.544,-42.097,39.544,-42.097C39.544,-42.097,-50.654,-42.097,-50.654,-42.097C-95.752,-41.332,-117.164,18.356,-117.164,18.356C-121.495,27.659,-123.271,41.986,-123.271,41.986C-123.271,41.986,-23.522,41.986,-23.522,41.986C-23.522,41.986,-24.919,37.399,-24.919,37.399Z" /></g><g id="i34" transform="matrix(1,0,0,1,55.842,80.371)"><path fill="#666666" d="M-33.888,-5.733C-33.888,-5.733,19.264,5.733,19.264,5.733C19.264,5.733,33.888,-2.93,33.888,-2.93C33.888,-2.93,-33.888,-5.733,-33.888,-5.733Z" /></g><g id="i35" transform="matrix(1,0,0,1,56.526,74.638)"><path fill="#898989" d="M56.276,-0.001C56.276,1.922,54.617,3.482,52.571,3.482C52.571,3.482,-52.571,3.482,-52.571,3.482C-54.617,3.482,-56.276,1.922,-56.276,-0.001C-56.276,-1.924,-54.617,-3.482,-52.571,-3.482C-52.571,-3.482,52.571,-3.482,52.571,-3.482C54.617,-3.482,56.276,-1.924,56.276,-0.001Z" /></g><g id="i36" transform="matrix(1,0,0,1,55.587,98.334)"><path fill="#ad2217" d="M19.365,-12.231C19.365,-12.231,0.462,-12.231,0.462,-12.231C0.462,-12.231,-19.365,-3.567,-12.74,6.116C-12.74,6.116,-4.586,12.231,-2.038,9.173C-2.038,9.173,19.365,-12.231,19.365,-12.231Z" /></g><g id="i37" transform="matrix(1,0,0,1,59.48,97.978)"><path fill="#898989" d="M2.529,-11.875C0.945,-9.228,-10.006,4.873,-15.473,7.275C-13.135,8.823,-7.887,11.875,-5.93,9.528C-5.93,9.528,15.473,-11.875,15.473,-11.875C15.473,-11.875,2.529,-11.875,2.529,-11.875Z" /></g><g id="i38" transform="matrix(1,0,0,1,320.984,138.913)"><path fill="#ee2201" d="M0,-25.884C-28.59,-25.884,-51.768,-2.707,-51.768,25.884C-51.768,25.884,51.768,25.884,51.768,25.884C51.768,-2.707,28.591,-25.884,0,-25.884Z" /></g><g id="i39" transform="matrix(1,0,0,1,300.207,138.913)"><path fill="#c11200" d="M30.991,-24.872C27.688,-25.532,24.274,-25.885,20.777,-25.885C-7.813,-25.885,-30.991,-2.707,-30.991,25.884C-30.991,25.884,-10.564,25.884,-10.564,25.884C-10.564,0.79,7.294,-20.129,30.991,-24.872Z" /></g><g id="i40" transform="matrix(1,0,0,1,92.023,138.913)"><path fill="#ee2201" d="M0,-25.884C-28.59,-25.884,-51.768,-2.707,-51.768,25.884C-51.768,25.884,51.768,25.884,51.768,25.884C51.768,-2.707,28.59,-25.884,0,-25.884Z" /></g><g id="i1" transform="matrix(1,0,0,1,70.63,138.913)"><path fill="#c11200" d="M30.374,-25.092C27.455,-25.603,24.457,-25.885,21.393,-25.885C-7.198,-25.885,-30.375,-2.706,-30.375,25.885C-30.375,25.885,-12.412,25.885,-12.412,25.885C-12.412,0.359,6.067,-20.837,30.374,-25.092Z" /></g><g id="i2" transform="matrix(1,0,0,1,110.084,120.658)"><path fill="#ee2201" d="M81.309,-44.491C81.309,-44.491,30.901,-44.491,30.901,-44.491C17.393,-44.491,3.543,-45.399,-9.939,-44.434C-53.284,-41.333,-76.547,3.615,-83.717,41.275C-84.267,44.164,-79.847,45.398,-79.295,42.494C-72.627,7.472,-50.605,-38.251,-9.041,-39.9C20.979,-41.091,51.262,-39.904,81.309,-39.904C84.267,-39.904,84.267,-44.491,81.309,-44.491Z" /></g><g id="i3" transform="matrix(1,0,0,1,283.918,16.745)"><path fill="#ee2201" d="M-4.158,-16.495C-5.047,-16.495,-5.767,-15.775,-5.767,-14.886C-5.767,-14.886,-5.767,14.886,-5.767,14.886C-5.767,15.775,-5.047,16.495,-4.158,16.495C-3.268,16.495,-2.55,15.775,-2.55,14.886C-2.55,14.886,-2.55,9.254,-2.55,9.254C-2.55,9.254,5.767,-16.495,5.767,-16.495C5.767,-16.495,-4.158,-16.495,-4.158,-16.495Z" /></g><g id="i4" transform="matrix(1,0,0,1,280.974,25.022)"><path fill="#c11200" d="M-2.823,-8.218C-2.823,-8.218,-2.823,6.609,-2.823,6.609C-2.823,7.497,-2.103,8.218,-1.215,8.218C-0.325,8.218,0.395,7.497,0.395,6.609C0.395,6.609,0.395,0.976,0.395,0.976C0.395,0.976,2.823,-6.54,2.823,-6.54C0.824,-6.771,-1.061,-7.36,-2.823,-8.218Z" /></g><g id="i5" transform="matrix(1,0,0,1,282.51,96.915)"><path fill="#ffe269" d="M-6.37,-10.447C-6.37,-10.447,1.784,-10.447,1.784,-10.447C1.784,-10.447,6.37,2.803,1.784,10.447C1.784,10.447,-6.37,10.447,-6.37,10.447C-6.37,10.447,-2.803,-3.312,-6.37,-10.447Z" /></g><g id="i6" transform="matrix(1,0,0,1,281.001,96.915)"><path fill="#eaca44" d="M-1.676,6.26C-1.676,6.26,0.756,-3.154,-0.423,-10.447C-0.423,-10.447,-4.862,-10.447,-4.862,-10.447C-1.294,-3.312,-4.862,10.447,-4.862,10.447C-4.862,10.447,3.293,10.447,3.293,10.447C4.053,9.179,4.543,7.75,4.862,6.26C4.862,6.26,-1.676,6.26,-1.676,6.26Z" /></g><g id="i7" transform="matrix(1,0,0,1,89.73,158.721)"><path fill="#9e0700" d="M26.563,0C26.563,0.633,26.049,1.146,25.416,1.146C25.416,1.146,-25.416,1.146,-25.416,1.146C-26.049,1.146,-26.563,0.633,-26.563,0C-26.563,-0.633,-26.049,-1.146,-25.416,-1.146C-25.416,-1.146,25.416,-1.146,25.416,-1.146C26.049,-1.146,26.563,-0.633,26.563,0Z" /></g><g id="i8" transform="matrix(1,0,0,1,89.73,153.752)"><path fill="#9e0700" d="M26.563,0C26.563,0.634,26.049,1.146,25.416,1.146C25.416,1.146,-25.416,1.146,-25.416,1.146C-26.049,1.146,-26.563,0.634,-26.563,0C-26.563,-0.633,-26.049,-1.146,-25.416,-1.146C-25.416,-1.146,25.416,-1.146,25.416,-1.146C26.049,-1.146,26.563,-0.633,26.563,0Z" /></g><g id="i9" transform="matrix(1,0,0,1,89.73,148.784)"><path fill="#9e0700" d="M26.563,-0.001C26.563,0.633,26.049,1.146,25.416,1.146C25.416,1.146,-25.416,1.146,-25.416,1.146C-26.049,1.146,-26.563,0.633,-26.563,-0.001C-26.563,-0.634,-26.049,-1.146,-25.416,-1.146C-25.416,-1.146,25.416,-1.146,25.416,-1.146C26.049,-1.146,26.563,-0.634,26.563,-0.001Z" /></g><g id="i10" transform="matrix(1,0,0,1,253.586,16.948)"><path fill="#ee2201" d="M-12.441,-0.452C-12.441,-0.452,4.454,-8.438,4.454,-8.438C4.454,-8.438,6.595,-9.071,8.248,-8.438C11.002,-7.385,12.441,-3.273,9.675,-0.452C6.291,3.001,-8.14,9.07,-8.14,9.07C-8.14,9.07,-12.441,-0.452,-12.441,-0.452Z" /></g><g id="i11" transform="matrix(1,0,0,1,253.873,18.542)"><path fill="#c11200" d="M-11.18,1.379C-11.18,1.379,-8.426,7.477,-8.426,7.477C-8.426,7.477,6.006,1.406,9.389,-2.046C11.017,-3.706,11.181,-5.809,10.486,-7.477C3.594,-3.352,-3.711,-0.802,-11.18,1.379Z" /></g><g id="i12" transform="matrix(1,0,0,1,243.693,21.104)"><path fill="#b8b8b8" d="M-5.529,0C-5.529,3.053,-3.053,5.529,0,5.529C3.054,5.529,5.529,3.053,5.529,0C5.529,-3.054,3.054,-5.529,0,-5.529C-3.053,-5.529,-5.529,-3.054,-5.529,0Z" /></g><g id="i13" transform="matrix(1,0,0,1,239.424,22.495)"><path fill="#363636" d="M-8.385,-0.434C-8.385,-0.434,4.268,-4.771,4.268,-4.771C4.268,-4.771,8.385,-4.661,7.952,-1.391C7.952,-1.391,7.518,0.578,5.783,1.012C5.783,1.012,-6.795,4.771,-6.795,4.771C-6.795,4.771,-8.385,-0.434,-8.385,-0.434Z" /></g><g id="i14" transform="matrix(1,0,0,1,232.485,24.415)"><path fill="#020202" d="M3.325,0C3.325,1.574,1.836,2.85,0,2.85C-1.837,2.85,-3.325,1.574,-3.325,0C-3.325,-1.574,-1.837,-2.85,0,-2.85C1.836,-2.85,3.325,-1.574,3.325,0Z" /></g></g></g></g><g id="i41"><g transform="translate(275,205.282)"><animateTransform repeatCount="indefinite" type="translate" attributeName="transform" dur="4s" begin="0s" calcMode="spline" values="275 205.282; 275 200; 275 205; 275 200; 275 205; 275 200; 275 205; 275 200; 275 205; 275 205" keyTimes="0; 0.125; 0.258333; 0.379166; 0.504166; 0.629166; 0.745833; 0.879166; 0.995833; 1" keySplines="0.333 0 0.667 1; 0.333 0 0.667 1; 0.333 0 0.667 1; 0.333 0 0.667 1; 0.333 0 0.667 1; 0.333 0 0.667 1; 0.333 0 0.667 1; 0.333 0 0.667 1; 0 0 1 1" fill="freeze" /><g transform="scale(1,1) translate(-70.204,-160.257)"><g id="i29" transform="matrix(1,0,0,1,93.995,164.211)"><path fill="#840900" d="M-23.868,-10.621C-24.382,-9.527,-24.905,-8.436,-25.425,-7.344C-21.533,-6.384,-17.714,-5.095,-14.243,-3.17C-11.878,-1.857,-9.716,-0.273,-7.793,1.523C-7.793,1.523,22.791,10.621,22.791,10.621C22.791,10.621,25.425,2.39,25.425,2.39C9.995,-1.97,-9.775,-6.622,-23.868,-10.621Z" /></g><g id="i30" transform="matrix(1,0,0,1,119.221,174.128)"><path fill="#ff8e66" d="M-2.278,7.152C-2.278,7.152,-9.706,3.514,-9.706,3.514C-9.706,3.514,-7.26,-4.486,-7.26,-4.486C-7.26,-4.486,-7.26,-7.152,-7.26,-7.152C-7.26,-7.152,9.706,1.255,9.706,1.255C9.706,1.255,2.127,7.152,2.127,7.152C2.127,7.152,-2.278,7.152,-2.278,7.152Z" /></g><g id="i31" transform="matrix(1,0,0,1,116.14,174.128)"><path fill="#d86a48" d="M4.206,5.163C3.42,5.042,2.834,4.684,2.416,4.21C1.611,3.68,1.072,2.77,1.226,1.513C1.357,0.436,1.681,-0.601,2.087,-1.602C2.337,-2.218,2.756,-3.198,2.745,-3.517C2.742,-3.585,2.751,-3.651,2.751,-3.719C2.751,-3.719,-4.179,-7.152,-4.179,-7.152C-4.179,-7.152,-4.179,-4.486,-4.179,-4.486C-4.179,-4.486,-6.625,3.514,-6.625,3.514C-6.625,3.514,0.803,7.152,0.803,7.152C0.803,7.152,5.208,7.152,5.208,7.152C5.208,7.152,6.625,6.05,6.625,6.05C5.818,5.603,4.999,5.285,4.206,5.163Z" /></g><g id="i32" transform="matrix(1,0,0,1,65.075,85.725)"><path fill="#d86a48" d="M14.773,-9.25C14.773,-9.25,5.518,15,5.518,15C5.518,15,-14.773,2.25,-14.773,2.25C-14.773,2.25,-12.941,-15,-12.941,-15C-12.941,-15,14.773,-9.25,14.773,-9.25Z" /></g><g id="i33" transform="matrix(1,0,0,1,95.166,297.499)"><path fill="#fff3da" d="M-5.591,-9.902C-5.591,-9.902,-8.068,3.227,-8.068,3.227C-8.068,3.227,3.638,9.902,4.089,8.314C4.539,6.727,8.068,-9.902,8.068,-9.902C8.068,-9.902,-5.591,-9.902,-5.591,-9.902Z" /></g><g id="i34" transform="matrix(1,0,0,1,71.681,239.611)"><path fill="#3d6e7f" d="M-60.139,-55.365C-60.139,-55.365,-65.168,-23.722,-34.333,-21.512C-3.334,-19.292,33.668,-6.135,33.668,-6.135C33.668,-6.135,20.106,24.337,15.668,51.865C15.668,51.865,31.984,55.365,31.984,55.365C31.984,55.365,45.284,30.883,57.168,-2.751C57.168,-2.751,65.167,-21.512,48.587,-28.635C22.839,-39.697,-1.333,-54.248,-1.333,-54.248C-1.333,-54.248,-60.139,-55.365,-60.139,-55.365Z" /></g><g id="i35" transform="matrix(1,0,0,1,59.536,140.514)"><path fill="#ee2201" d="M-16.188,-66.941C-16.188,-66.941,27.812,-47.288,27.812,-47.288C27.812,-47.288,19.479,-38.205,19.479,-38.205C19.479,-38.205,20.479,1.655,20.479,1.655C20.479,1.655,59.286,23.962,59.286,23.962C59.286,23.962,52.08,39.087,52.08,39.087C52.08,39.087,21.573,25.259,21.573,25.259C21.573,25.259,21.859,48.055,21.859,48.055C21.859,48.055,-20.212,66.942,-50.059,47.329C-50.059,47.329,-59.286,-13.983,-17.438,-55.038C-15.254,-57.181,-18.641,-64.953,-16.188,-66.941Z" /></g><g id="i36" transform="matrix(1,0,0,1,42.746,157.338)"><path fill="#aa1000" d="M38.648,18.387C36.388,19.074,35.01,19.304,32.524,19.311C9.577,19.372,-14.928,8.521,-20.375,-15.85C-22.91,-27.186,-21.579,-38.1,-17.618,-48.079C-17.618,-48.253,-17.629,-48.429,-17.628,-48.604C-17.624,-49.101,-17.58,-49.616,-17.569,-50.117C-38.649,-16.862,-33.27,30.504,-33.27,30.504C-3.423,50.117,38.648,31.23,38.648,31.23C38.648,31.23,38.648,18.387,38.648,18.387Z" /></g><g id="i37" transform="matrix(1,0,0,1,79.084,145.204)"><path fill="#aa1000" d="M-26.236,0C-30.76,-3.314,-36.17,-34.396,-36.17,-34.396C-36.17,-34.396,-34.236,-18.736,-34.236,-5.396C-34.236,6.853,-20.658,11.015,-20.658,11.015C-20.658,11.015,32.532,34.396,32.532,34.396C32.532,34.396,36.17,26.558,36.17,26.558C13.756,17.071,-18.502,5.667,-26.236,0Z" /></g><g id="i38" transform="matrix(1,0,0,1,86.835,126.809)"><path stroke-miterlimit="10" stroke-width="1" stroke="#aa1000" d="M31.987,37.666C31.987,37.666,-14.32,11.834,-14.32,11.834C-14.32,11.834,-18.752,-26.084,-18.752,-26.084C-18.752,-26.084,-19.987,-34.666,-31.987,-37.666" /></g><g id="i39" transform="matrix(1,0,0,1,106.172,307.258)"><path fill="#000000" d="M-21.126,-12.93C-21.126,-12.93,-2.937,-9.52,-2.937,-9.52C-2.937,-9.52,-4.998,-4.611,-4.998,-4.611C-4.998,-4.611,9.624,-2.816,9.624,-2.816C9.624,-2.816,23.065,1.408,22.042,12.93C22.042,12.93,-23.064,8.924,-23.064,8.924C-23.064,8.924,-22.102,-1.926,-22.102,-1.926C-22.102,-1.926,-21.126,-12.93,-21.126,-12.93Z" /></g><g id="i40" transform="matrix(1,0,0,1,105.771,316.939)"><path fill="#ffffff" d="M-22.664,-0.758C-22.664,-0.758,22.442,3.249,22.442,3.249C22.442,3.249,22.664,0.758,22.664,0.758C22.664,0.758,-22.443,-3.25,-22.443,-3.25C-22.443,-3.25,-22.664,-0.758,-22.664,-0.758Z" /></g><g id="i1" transform="matrix(1,0,0,1,111.321,306.365)"><path fill="#ffffff" d="M-1.497,2.684C-1.497,2.684,1,2.906,1,2.906C1,2.906,1.497,-2.683,1.497,-2.683C1.497,-2.683,-1,-2.906,-1,-2.906C-1,-2.906,-1.497,2.684,-1.497,2.684Z" /></g><g id="i2" transform="matrix(1,0,0,1,106.746,305.958)"><path fill="#ffffff" d="M-1.496,2.684C-1.496,2.684,1,2.906,1,2.906C1,2.906,1.496,-2.684,1.496,-2.684C1.496,-2.684,-1.001,-2.906,-1.001,-2.906C-1.001,-2.906,-1.496,2.684,-1.496,2.684Z" /></g><g id="i3" transform="matrix(1,0,0,1,102.174,305.553)"><path fill="#ffffff" d="M-1.496,2.683C-1.496,2.683,1,2.905,1,2.905C1,2.905,1.496,-2.684,1.496,-2.684C1.496,-2.684,-1.001,-2.906,-1.001,-2.906C-1.001,-2.906,-1.496,2.683,-1.496,2.683Z" /></g><g id="i4" transform="matrix(1,0,0,1,122.591,312.303)"><path fill="#ffffff" d="M-6.091,-7.962C-3.481,-7.009,7.396,-2.4,6.476,7.962C6.476,7.962,-7.396,6.729,-7.396,6.729C-7.396,6.729,-6.091,-7.962,-6.091,-7.962Z" /></g><g id="i5" transform="matrix(1,0,0,1,97.784,287.596)"><path fill="#8fadb5" d="M-12.192,3.669C-12.192,3.669,8.588,8.629,8.588,8.629C8.588,8.629,12.192,-1.391,12.192,-1.391C12.192,-1.391,-9.874,-8.629,-9.874,-8.629C-9.874,-8.629,-12.192,3.669,-12.192,3.669Z" /></g><g id="i6" transform="matrix(1,0,0,1,75.264,45.529)"><path fill="#ee2201" d="M-26.969,27.234C-26.969,27.234,-45.572,20.474,-39.065,-12.403C-32.558,-45.279,13.559,-42.137,29.566,-16.815C45.572,8.506,45.019,30.864,39.494,38.071C33.969,45.279,20.789,38.742,9.152,35.599C-2.485,32.456,-26.969,27.234,-26.969,27.234Z" /></g><g id="i7" transform="matrix(1,0,0,1,72.942,52.405)"><path fill="#aa1000" d="M17.834,23.26C6.197,20.117,-18.287,14.896,-18.287,14.896C-18.287,14.896,-36.89,8.136,-30.383,-24.741C-29.282,-30.305,-27.042,-34.836,-24.01,-38.404C-30.253,-34.514,-34.97,-28.236,-36.743,-19.279C-43.249,13.597,-24.646,20.359,-24.646,20.359C-24.646,20.359,-0.162,25.581,11.475,28.724C23.111,31.867,36.291,38.404,41.816,31.196C42.343,30.51,42.823,29.685,43.249,28.735C36.658,30.107,26.789,25.679,17.834,23.26Z" /></g><g id="i8" transform="matrix(1,0,0,1,83.85,44.188)"><path fill="#514e4e" d="M-7.841,-14.067C-9.664,-14.713,-13.169,-17.414,-16.511,-18.298C-16.793,-18.373,-23.799,-19.463,-27.722,-14.704C-30.134,-11.653,-33.696,-1.979,-27.677,3.584C-24.252,6.751,-20.859,8.058,-12.531,10.602C-4.204,13.146,25.103,19.463,33.696,16.489C32.311,7.82,28.821,-2.463,22.275,-13.369C19.829,-13.125,3.525,-10.036,-7.841,-14.067Z" /></g><g id="i9" transform="matrix(1,0,0,1,92.452,46.275)"><path fill="#ffffff" d="M-6.569,11.992C-2.186,12.871,2.585,13.705,7.132,14.299C5.975,4.712,3.818,-4.737,1.783,-14.194C-1.024,-14.056,-4.082,-14.043,-7.132,-14.298C-6.845,-6.009,-6.736,2.283,-6.592,10.577C-6.585,11.049,-6.577,11.52,-6.569,11.992Z" /></g><g id="i10" transform="matrix(1,0,0,1,61.41,39.954)"><path fill="#333333" d="M10.877,-11.835C9.345,-12.709,7.617,-13.617,5.929,-14.063C5.647,-14.138,-1.36,-15.228,-5.282,-10.469C-7.695,-7.418,-11.256,2.254,-5.238,7.817C-1.812,10.983,1.581,12.292,9.908,14.837C10.31,14.959,10.761,15.091,11.256,15.229C11.116,6.208,11.018,-2.814,10.877,-11.835Z" /></g><g id="i11" transform="matrix(1,0,0,1,62.651,38.215)"><path fill="#000000" d="M-7.94,0.154C-7.858,4.379,-4.237,7.736,0.148,7.651C4.533,7.566,8.022,4.072,7.94,-0.153C7.858,-4.379,4.237,-7.735,-0.148,-7.651C-4.533,-7.566,-8.022,-4.072,-7.94,0.154Z" /></g><g id="i12" transform="matrix(1,0,0,1,63.745,37.482)"><path fill="#fff3da" d="M-7.939,0.153C-7.857,4.379,-4.236,7.736,0.148,7.652C4.534,7.567,8.021,4.072,7.939,-0.153C7.858,-4.378,4.237,-7.735,-0.148,-7.65C-4.533,-7.565,-8.021,-4.072,-7.939,0.153Z" /></g><g id="i13" transform="matrix(1,0,0,1,127.152,182.469)"><path fill="#ff8e66" d="M-13.005,-2.111C-13.005,-2.111,-10.964,-12.586,-0.764,-8.227C9.435,-3.869,13.006,-0.02,10.529,4.8C8.147,9.437,0.61,12.585,-3.56,9.55C-3.56,9.55,0.765,8.258,-0.932,6.057C-3.714,2.446,-5.54,4.339,-5.54,4.339C-5.54,4.339,-11.484,4.394,-13.005,-2.111Z" /></g><g id="i14" transform="matrix(1,0,0,1,122.458,184.048)"><path fill="#d86a48" d="M5.939,1.636C4.399,-0.936,0.944,-4.288,-2.113,-4.758C-2.899,-4.879,-3.484,-5.237,-3.902,-5.711C-4.707,-6.241,-5.246,-7.151,-5.092,-8.408C-5.049,-8.76,-4.981,-9.104,-4.901,-9.447C-7.596,-7.355,-8.311,-3.69,-8.311,-3.69C-6.79,2.815,-0.846,2.76,-0.846,2.76C-0.846,2.76,0.98,0.866,3.762,4.477C5.459,6.679,1.134,7.97,1.134,7.97C3.083,9.388,5.763,9.446,8.311,8.643C7.738,6.209,7.185,3.717,5.939,1.636Z" /></g></g></g></g><g id="i42"><g transform="translate(126.886,240.736)"><animateTransform repeatCount="indefinite" type="translate" attributeName="transform" dur="4s" begin="0s" calcMode="spline" values="126.886 240.736; 126.886 235; 126.886 240; 126.886 235; 126.886 240; 126.886 235; 126.886 240; 126.886 235; 126.886 240; 126.886 240" keyTimes="0; 0.125; 0.254167; 0.375; 0.5; 0.625; 0.754166; 0.879166; 0.995833; 1" keySplines="0.333 0 0.667 1; 0.333 0 0.667 1; 0.333 0 0.667 1; 0.333 0 0.667 1; 0.333 0 0.667 1; 0.333 0 0.667 1; 0.333 0 0.667 1; 0.333 0 0.667 1; 0 0 1 1" fill="freeze" /><g transform="scale(1,1) translate(-63.601,-41.4)"><g id="i7" transform="matrix(1,0,0,1,63.601,41.399)"><path fill="#ee2201" d="M63.351,10.669C63.351,27.503,50.745,41.15,35.195,41.15C35.195,41.15,-35.195,41.15,-35.195,41.15C-50.745,41.15,-63.351,27.503,-63.351,10.669C-63.351,10.669,-63.351,-10.668,-63.351,-10.668C-63.351,-27.502,-50.745,-41.15,-35.195,-41.15C-35.195,-41.15,35.195,-41.15,35.195,-41.15C50.745,-41.15,63.351,-27.502,63.351,-10.668C63.351,-10.668,63.351,10.669,63.351,10.669Z" /></g><g id="i8" transform="matrix(1,0,0,1,62.486,42.81)"><path fill="#c11200" d="M50.461,23.983C50.461,23.983,-19.93,23.983,-19.93,23.983C-35.48,23.983,-48.085,10.338,-48.085,-6.497C-48.085,-6.497,-48.085,-27.834,-48.085,-27.834C-48.085,-32.059,-47.29,-36.082,-45.855,-39.74C-55.517,-34.911,-62.236,-24.356,-62.236,-12.079C-62.236,-12.079,-62.236,9.257,-62.236,9.257C-62.236,26.091,-49.629,39.74,-34.079,39.74C-34.079,39.74,36.311,39.74,36.311,39.74C47.959,39.74,57.953,32.081,62.236,21.163C58.649,22.956,54.67,23.983,50.461,23.983Z" /></g><g id="i9" transform="matrix(1,0,0,1,101.871,34.576)"><path fill="#fff3da" d="M-12.984,-12.271C-14.817,-7.828,-15.746,-3.443,-15.746,0.76C-15.746,8.022,-12.973,12.225,-12.855,12.4C-12.485,12.949,-11.774,13.152,-11.171,12.882C-11.171,12.882,14.942,1.186,14.942,1.186C15.432,0.966,15.746,0.48,15.746,-0.056C15.746,-0.592,15.432,-1.078,14.943,-1.297C14.943,-1.297,-11.17,-12.994,-11.17,-12.994C-11.506,-13.144,-11.888,-13.152,-12.23,-13.016C-12.572,-12.88,-12.844,-12.611,-12.984,-12.271Z" /></g><g id="i10" transform="matrix(1,0,0,1,82.021,34.52)"><path fill="#fff3da" d="M1.533,-14.189C-5.422,0.372,1.27,13.681,1.558,14.24C2.039,15.173,3.184,15.54,4.118,15.061C5.053,14.581,5.422,13.434,4.945,12.499C4.883,12.378,-1.152,0.266,4.969,-12.546C5.095,-12.812,5.155,-13.092,5.155,-13.367C5.155,-14.077,4.755,-14.758,4.071,-15.085C3.122,-15.539,1.986,-15.138,1.533,-14.189Z" /></g><g id="i11" transform="matrix(1,0,0,1,93.408,40.504)"><path fill="#ee2201" d="M0,3.445C1.903,3.445,3.445,1.904,3.445,0.001C3.445,-1.903,1.903,-3.445,0,-3.445C-1.903,-3.445,-3.445,-1.903,-3.445,0.001C-3.445,1.904,-1.903,3.445,0,3.445Z" /></g><g id="i12" transform="matrix(1,0,0,1,100.299,32.033)"><path fill="#ee2201" d="M0.001,3.445C1.904,3.445,3.446,1.904,3.446,0.001C3.446,-1.902,1.904,-3.445,0.001,-3.445C-1.902,-3.445,-3.446,-1.902,-3.446,0.001C-3.446,1.904,-1.902,3.445,0.001,3.445Z" /></g><g id="i13" transform="matrix(1,0,0,1,92.09,28.247)"><path fill="#ee2201" d="M-2.979,-0.794C-2.979,-0.794,-1.106,-2.742,-1.106,-2.742C-1.106,-2.742,2.979,0.521,2.979,0.521C2.979,0.521,0.601,2.742,0.601,2.742C0.601,2.742,-2.979,-0.794,-2.979,-0.794Z" /></g><g id="i14" transform="matrix(1,0,0,1,109.482,34.52)"><path fill="#ee2201" d="M-1.428,2.453C-1.428,2.453,-2.445,0.378,-2.445,0.378C-2.445,0.378,1.356,-2.453,1.356,-2.453C1.356,-2.453,2.445,0.124,2.445,0.124C2.445,0.124,-1.428,2.453,-1.428,2.453Z" /></g></g></g></g></svg>