<svg xmlns="http://www.w3.org/2000/svg" fill="none" viewBox="0 0 375 375">
    <defs>
        <clipPath id="d">
            <path d="M0 0h375v812H0z"/>
        </clipPath>
        <clipPath id="h">
            <path d="M375-419H0v812h375z"/>
        </clipPath>
    </defs>
    <g clip-path="url(#d)" transform="translate(0 -16.5)">
        <g clip-path="url(#h)">
            <g clip-path="url(#d)">
                <g transform="rotate(230 240.082 133.817)">
                    <animateTransform fill="freeze" attributeName="transform" begin="0s" calcMode="spline" dur="4s" keySplines="0 0 1 1; 0.2 0 0.2 1; 0.2 0 0.2 1; 0 0 1 1" keyTimes="0; 0.05; 0.175; 0.354167; 1" repeatCount="indefinite" type="rotate" values="-130; -130; 2; 0.5; 0.5"/>
                    <g clip-path="url(#d)" transform="translate(-291.894 -403.747)">
                        <path fill="#29293d" d="M212.999 147.097c4.172 0 7.581 3.415 7.581 7.587V315.16c0 4.173-3.409 7.581-7.581 7.581H145.68c-4.173 0-7.588-3.408-7.588-7.581V154.684c0-4.172 3.415-7.587 7.588-7.587zm-.258-5.673h-67.107c-7.122 0-12.963 5.841-12.963 12.969v167.423c0 7.135 5.841 12.964 12.963 12.964h67.107c7.128 0 12.969-5.829 12.969-12.964V154.393c0-7.128-5.841-12.969-12.969-12.969"/>
                        <path fill="#ccc" d="M225.394 321.816c0 6.973-5.679 12.646-12.653 12.646h-67.106c-6.974 0-12.646-5.673-12.646-12.646V154.393c0-6.973 5.672-12.653 12.646-12.653h67.106c6.974 0 12.653 5.68 12.653 12.653zm-12.653-180.71h-67.106c-7.323 0-13.28 5.964-13.28 13.287v167.423c0 7.323 5.957 13.28 13.28 13.28h67.106c7.323 0 13.281-5.957 13.281-13.28V154.393c0-7.323-5.958-13.287-13.281-13.287"/>
                        <path fill="#fecfb7" d="M220.581 154.685v160.476c0 4.172-3.41 7.581-7.581 7.581h-67.32c-4.172 0-7.588-3.409-7.588-7.581V154.685c0-4.172 3.416-7.588 7.588-7.588H213c4.171 0 7.581 3.416 7.581 7.588"/>
                        <path fill="#3b414b" d="M172.192 148.26c1.092 0 1.976.884 1.976 1.975a1.974 1.974 0 0 1-3.946 0c0-1.091.885-1.975 1.97-1.975"/>
                        <path fill="#515760" d="M188.089 150.046c0 .925-.789 1.682-1.766 1.682-.97 0-1.766-.757-1.766-1.682s.796-1.682 1.766-1.682c.977 0 1.766.757 1.766 1.682"/>
                        <path fill="#1a1f29" d="M182.259 149.239v.997a.975.975 0 0 1-.979.978h-3.868a.98.98 0 0 1-.979-.978v-.997c0-.536.443-.979.979-.979h3.868a.98.98 0 0 1 .979.979"/>
                        <path fill="#3e394f" d="M186.323 148.368c-.972 0-1.766.751-1.766 1.678 0 .928.794 1.68 1.766 1.68.979 0 1.768-.752 1.768-1.68s-.789-1.678-1.768-1.678m-21.819-1.269h29.791s-3.207.556-3.232 3.566c-.032 3.006-2.556 3.516-4.821 3.516h-13.685c-2.266 0-4.79-.51-4.822-3.516-.024-3.01-3.231-3.566-3.231-3.566m16.776 1.161h-3.868a.984.984 0 0 0-.979.979v.997c0 .543.442.978.979.978h3.868a.975.975 0 0 0 .979-.978v-.997a.98.98 0 0 0-.979-.979m-7.112 1.976a1.974 1.974 0 1 0-1.976 1.97 1.974 1.974 0 0 0 1.976-1.97"/>
                        <path fill="#3e394f" d="M222.464 153.999V315.16h-1.883V154.684c0-4.172-3.409-7.587-7.581-7.587h-67.319c-4.173 0-7.589 3.415-7.589 7.587V315.16h-1.766V153.999c0-5.583 4.575-10.143 10.143-10.143h65.852c5.583 0 10.143 4.56 10.143 10.143M222.464 315.16v7.032c0 5.576-4.56 10.142-10.143 10.142h-65.852c-5.568 0-10.143-4.566-10.143-10.142v-7.032h1.766c0 4.172 3.416 7.581 7.589 7.581H213c4.172 0 7.581-3.409 7.581-7.581z"/>
                    </g>
                </g>
                <g transform="rotate(230 240.082 133.817)">
                    <animateTransform fill="freeze" attributeName="transform" begin="0s" calcMode="spline" dur="4s" keySplines="0 0 1 1; 0.2 0 0.2 1; 0.2 0 0.2 1; 0 0 1 1" keyTimes="0; 0.05; 0.175; 0.354167; 1" repeatCount="indefinite" type="rotate" values="-130; -130; 2; 0.5; 0.5"/>
                    <path fill="#ffa9a9" d="M-80.133-36.695s-25.925-61.82 12.327-96.809c0 0-10.153-58.556 0-66.714s17.041 21.211 33.357 114.212L.674-38.146.719 3.515h-63.142z"/>
                </g>
                <g transform="rotate(230 240.082 133.817)">
                    <animateTransform fill="freeze" attributeName="transform" begin="0s" calcMode="spline" dur="4s" keySplines="0 0 1 1; 0.2 0 0.2 1; 0.2 0 0.2 1; 0 0 1 1" keyTimes="0; 0.05; 0.175; 0.354167; 1" repeatCount="indefinite" type="rotate" values="-130; -130; 2; 0.5; 0.5"/>
                    <g clip-path="url(#d)" transform="translate(-291.894 -403.747)">
                        <path fill="#ffa9a9" d="M132.448 258.823h-9.246c-4.537 0-8.249-3.712-8.249-8.249s3.712-8.249 8.249-8.249h9.246c4.537 0 8.249 3.712 8.249 8.249s-3.712 8.249-8.249 8.249M130.678 278.13h-8.792c-5.309 0-9.653-4.344-9.653-9.654s4.344-9.653 9.653-9.653h8.792c5.309 0 9.654 4.344 9.654 9.653s-4.345 9.654-9.654 9.654M131.043 297.438h-8.793c-5.309 0-9.654-4.345-9.654-9.654s4.345-9.654 9.654-9.654h8.793c5.309 0 9.653 4.345 9.653 9.654s-4.344 9.654-9.653 9.654"/>
                        <path fill="#ffa9a9" d="M132.856 313.934h-9.245c-4.537 0-8.249-3.712-8.249-8.249s3.712-8.249 8.249-8.249h9.245c4.537 0 8.249 3.712 8.249 8.249s-3.712 8.249-8.249 8.249"/>
                    </g>
                </g>
                <g transform="rotate(230 240.082 133.817)">
                    <animateTransform fill="freeze" attributeName="transform" begin="0s" calcMode="spline" dur="4s" keySplines="0 0 1 1; 0.2 0 0.2 1; 0.2 0 0.2 1; 0 0 1 1" keyTimes="0; 0.05; 0.175; 0.354167; 1" repeatCount="indefinite" type="rotate" values="-130; -130; 2; 0.5; 0.5"/>
                </g>
                <g transform="rotate(230 240.082 133.817)">
                    <animateTransform fill="freeze" attributeName="transform" begin="0s" calcMode="spline" dur="4s" keySplines="0 0 1 1; 0.2 0 0.2 1; 0.2 0 0.2 1; 0 0 1 1" keyTimes="0; 0.05; 0.175; 0.354167; 1" repeatCount="indefinite" type="rotate" values="-130; -130; 2; 0.5; 0.5"/>
                </g>
                <g transform="rotate(230 240.082 133.817)">
                    <animateTransform fill="freeze" attributeName="transform" begin="0s" calcMode="spline" dur="4s" keySplines="0 0 1 1; 0.2 0 0.2 1; 0.2 0 0.2 1; 0 0 1 1" keyTimes="0; 0.05; 0.175; 0.354167; 1" repeatCount="indefinite" type="rotate" values="-130; -130; 2; 0.5; 0.5"/>
                </g>
                <g transform="rotate(230 240.082 133.817)">
                    <animateTransform fill="freeze" attributeName="transform" begin="0s" calcMode="spline" dur="4s" keySplines="0 0 1 1; 0.2 0 0.2 1; 0.2 0 0.2 1; 0 0 1 1" keyTimes="0; 0.05; 0.175; 0.354167; 1" repeatCount="indefinite" type="rotate" values="-130; -130; 2; 0.5; 0.5"/>
                </g>
                <g transform="rotate(230 240.082 133.817)">
                    <animateTransform fill="freeze" attributeName="transform" begin="0s" calcMode="spline" dur="4s" keySplines="0 0 1 1; 0.2 0 0.2 1; 0.2 0 0.2 1; 0 0 1 1" keyTimes="0; 0.05; 0.175; 0.354167; 1" repeatCount="indefinite" type="rotate" values="-130; -130; 2; 0.5; 0.5"/>
                </g>
            </g>
        </g>
    </g>
</svg>
